<?xml version="1.0" encoding="UTF-8" standalone="no"?>
<svg
   version="1.1"
   width="24"
   height="24"
   viewBox="0 0 256 256"
   id="svg18"
   sodipodi:docname="nuketalk.svg"
   inkscape:export-filename="nukelab.png"
   inkscape:export-xdpi="2048"
   inkscape:export-ydpi="2048"
   xmlns:inkscape="http://www.inkscape.org/namespaces/inkscape"
   xmlns:sodipodi="http://sodipodi.sourceforge.net/DTD/sodipodi-0.dtd"
   xmlns="http://www.w3.org/2000/svg"
   xmlns:svg="http://www.w3.org/2000/svg">
  <defs
     id="defs22" />
  <sodipodi:namedview
     id="namedview20"
     pagecolor="#ffffff"
     bordercolor="#000000"
     borderopacity="0.25"
     inkscape:showpageshadow="2"
     inkscape:pageopacity="0.0"
     inkscape:pagecheckerboard="0"
     inkscape:deskcolor="#d1d1d1"
     showgrid="false" />
  <g
     transform="matrix(0.7,0,0,0.7,38.4,38.4)"
     id="g16"
     style="fill:#f37524;fill-opacity:1;stroke:#000000;stroke-width:3.04762;stroke-linejoin:bevel;stroke-dasharray:none;stroke-opacity:1;paint-order:normal">
    <g
       fill="#afafaf"
       fill-rule="nonzero"
       stroke="none"
       stroke-width="1"
       stroke-linecap="butt"
       stroke-linejoin="miter"
       stroke-miterlimit="10"
       stroke-dasharray=""
       stroke-dashoffset="0"
       font-family="none"
       font-weight="none"
       font-size="none"
       text-anchor="none"
       style="mix-blend-mode:normal;fill:#f37524;fill-opacity:1;stroke:#000000;stroke-width:3.04762;stroke-linejoin:bevel;stroke-dasharray:none;stroke-opacity:1;paint-order:normal"
       id="g14">
      <g
         transform="matrix(0.25,0,0,0.25,-0.16216,-0.29601)"
         id="g12"
         style="fill:#f37524;fill-opacity:1;stroke:#000000;stroke-width:12.1905;stroke-linejoin:bevel;stroke-dasharray:none;stroke-opacity:1;paint-order:normal">
        <g
           transform="matrix(3.13459,0,0,3.16815,-1119.1055,-1093.7635)"
           id="g10485"
           style="fill:#f37524;fill-opacity:1;stroke:#000000;stroke-width:3.86836;stroke-linejoin:bevel;stroke-dasharray:none;stroke-opacity:1;paint-order:normal">
          <path
             d="m 385.12,463.48 c -4.44,13.5 -25.32,10.98 -24.58,-4.84 0.29333,-6.28667 1.87,-13.10333 4.73,-20.45 16.22,-41.66 43.4,-67.32 82.87,-86.81 6.57,-3.23 16,-4.4 21.9,0.25 5.87,4.63 5.15,14.67 0.11,19.81 -1.34,1.36667 -3.99667,2.91667 -7.97,4.65 -31.59,13.76 -60.02,40.66 -72.02,72.97 -1.76667,4.77333 -3.44667,9.58 -5.04,14.42 z"
             id="path8881"
             style="fill:#f37524;fill-opacity:1;stroke:#000000;stroke-width:3.86836;stroke-linejoin:bevel;stroke-dasharray:none;stroke-opacity:1;paint-order:normal" />
          <path
             d="m 580.69,375.81 c -8.55,-5.25 -6.46,-18.71 1.13,-23.07 6.21,-3.57 12.23,-1.85 18.21,1.5 36.82,20.65 69.97,55.47 81.05,96.48 1.62,5.99 0.63,13.94 -4.29,18.16 -6.47,5.53 -16.75,4.78 -20.87,-3.61 -0.83333,-1.69333 -2.21667,-5.51 -4.15,-11.45 -9.63,-29.5 -29.11,-51.99 -55.74,-68.53 -5.10667,-3.16667 -10.22,-6.32667 -15.34,-9.48 z"
             id="path8883"
             style="fill:#f37524;fill-opacity:1;stroke:#000000;stroke-width:3.86836;stroke-linejoin:bevel;stroke-dasharray:none;stroke-opacity:1;paint-order:normal" />
          <path
             d="m 451.17,494.48 c -14.33,-0.17 -28.77,-0.93 -43.06,-0.06 -0.32667,0.02 -0.47667,-0.13333 -0.45,-0.46 1.7,-19.31 7.65,-39.22 19.23,-54.92 12.16,-16.48 28.66,-31.06 47.76,-38.88 10.7,-4.38667 21.79667,-7.53 33.29,-9.43 0.34,-0.0533 0.50667,0.09 0.5,0.43 l -0.29,44.63 c -0.005,0.35847 -0.29165,0.64934 -0.65,0.66 -2.34,0.0933 -4.6,0.49667 -6.78,1.21 -26.17,8.65 -44.06,28.88 -48.96,56.32 -0.06,0.33333 -0.25667,0.5 -0.59,0.5 z"
             id="path8885"
             style="fill:#f37524;fill-opacity:1;stroke:#000000;stroke-width:3.86836;stroke-linejoin:bevel;stroke-dasharray:none;stroke-opacity:1;paint-order:normal" />
          <path
             d="m 532.87,436.7 c -0.24916,-0.0528 -0.42553,-0.27537 -0.42,-0.53 l 0.17,-44.11 c 0.007,-0.32 0.17,-0.46667 0.49,-0.44 25.88667,2.45333 47.95,12.80333 66.19,31.05 7.21333,7.22 13.57667,15.11 19.09,23.67 9.72,15.09 12.84,30.4 14.66,48.33 0.04,0.36667 -0.12333,0.53667 -0.49,0.51 -15.1,-1.06 -30.21,-1.27 -45.33,-0.63 -0.35333,0.0133 -0.56,-0.15333 -0.62,-0.5 -1.97,-11.27 -5.31,-22.23 -12.18,-31.28 -10.14667,-13.35333 -24,-22.04333 -41.56,-26.07 z"
             id="path8887"
             style="fill:#f37524;fill-opacity:1;stroke:#000000;stroke-width:3.86836;stroke-linejoin:bevel;stroke-dasharray:none;stroke-opacity:1;paint-order:normal" />
          <path
             d="m 486.45,544.05 c -29.77,-27.76 -18.47,-74.32 19.6,-86.26 15.79,-4.95 34.04,-0.2 46.42,10.55 19.84,17.25 21.61,44.46 7.24,66.3 -16.4,24.94 -51.06,30.11 -73.26,9.41 z m 39.37,-44.52 c 0,-9.72021 -7.87979,-17.6 -17.6,-17.6 -9.72021,0 -17.6,7.87979 -17.6,17.6 0,9.72021 7.87979,17.6 17.6,17.6 9.72021,0 17.6,-7.87979 17.6,-17.6 z"
             id="path8889"
             style="fill:#f37524;fill-opacity:1;stroke:#000000;stroke-width:3.86836;stroke-linejoin:bevel;stroke-dasharray:none;stroke-opacity:1;paint-order:normal" />
          <path
             d="m 633.48,518.74 c 0.10004,0.005 0.19375,0.0505 0.25971,0.12588 0.066,0.0754 0.0985,0.17429 0.0903,0.27412 -4.98,56.3 -45.11,97.31 -100.96,104.1 -0.18667,0.02 -0.28,-0.0667 -0.28,-0.26 l -0.12,-45.12 c -4.4e-4,-0.32148 0.21815,-0.60193 0.53,-0.68 28.34,-7.07 48.76,-28.83 52.71,-57.94 0.0342,-0.27655 0.26678,-0.48801 0.55,-0.5 15.74,-0.71333 31.48,-0.71333 47.22,0 z"
             id="path8893"
             style="fill:#f37524;fill-opacity:1;stroke:#000000;stroke-width:3.86836;stroke-linejoin:bevel;stroke-dasharray:none;stroke-opacity:1;paint-order:normal" />
          <path
             d="m 486.73,617.78 c -43.89,-14.64 -74.82,-51.87 -78.6,-98.46 -0.0267,-0.32 0.12,-0.48333 0.44,-0.49 12.47333,-0.25333 24.95,-0.36667 37.43,-0.34 1.77333,0 3.53667,0.11667 5.29,0.35 0.32667,0.0467 0.50333,0.23 0.53,0.55 2.95,28.92 29.37,51.88 56,58.18 0.25333,0.06 0.38333,0.22333 0.39,0.49 l 0.33,44.69 c 0,0.30667 -0.15,0.42667 -0.45,0.36 -9.55333,-1.99333 -16.67333,-3.77 -21.36,-5.33 z"
             id="path8895"
             style="fill:#f37524;fill-opacity:1;stroke:#000000;stroke-width:3.86836;stroke-linejoin:bevel;stroke-dasharray:none;stroke-opacity:1;paint-order:normal" />
          <path
             d="m 443.36,660.71 c -35.69,-19.39 -67.56,-50.9 -81.31,-89.23 -1.72,-4.8 -3.6,-10.45 -2.27,-15.38 1.65333,-6.11333 5.62333,-9.5 11.91,-10.16 7.83,-0.82 12,3.87 14.26,10.85 2.92667,9.04 7.81333,18.68 14.66,28.92 16.87,25.23 38.11,40.65 64.92,54.16 15.45,7.78 8.04,27.95 -7.79,25.88 -4.48667,-0.59333 -9.28,-2.27333 -14.38,-5.04 z"
             id="path8897"
             style="fill:#f37524;fill-opacity:1;stroke:#000000;stroke-width:3.86836;stroke-linejoin:bevel;stroke-dasharray:none;stroke-opacity:1;paint-order:normal" />
          <path
             d="m 587.87,665.74 c -5.5,-0.8 -11.2,-4.91 -12.2,-10.7 -1.66,-9.57 2.87,-13.24 10.96,-17.83 30.8,-17.47 56.29,-41.82 66.53,-76.66 1.46667,-4.97333 2.73,-8.14 3.79,-9.5 3.35,-4.27 8.78,-5.73 14.1,-4.55 14.04,3.14 10.56,17.53 6.89,27.99 -13.54,38.63 -40.24,65.15 -74.67,86.01 -4.92,2.97 -9.83,6.06 -15.4,5.24 z"
             id="path8899"
             style="fill:#f37524;fill-opacity:1;stroke:#000000;stroke-width:3.86836;stroke-linejoin:bevel;stroke-dasharray:none;stroke-opacity:1;paint-order:normal" />
        </g>
      </g>
    </g>
  </g>
</svg>
